<?xml version="1.0" encoding="UTF-8"?>
<svg xmlns="http://www.w3.org/2000/svg" xmlns:xlink="http://www.w3.org/1999/xlink" width="351pt" height="365pt" viewBox="0 0 351 365" version="1.1">
<g id="surface1">
<path style=" stroke:none;fill-rule:nonzero;fill:rgb(89.803922%,0%,30.588235%);fill-opacity:1;" d="M 224.101562 340.722656 L 197.285156 316.445312 L 181.179688 316.78125 C 150.082031 317.457031 126.0625 313.074219 99.808594 301.777344 C 38.636719 275.394531 0 219.925781 0 158.476562 C 0 77.636719 66.753906 9.945312 155.484375 0.757812 C 167.398438 -0.421875 194.867188 0.167969 205.292969 1.9375 C 242.90625 8.34375 273.257812 22.589844 299.234375 46.027344 C 323.8125 68.28125 340.851562 96.941406 347.277344 126.949219 C 360.125 187.21875 335.542969 247.070312 282.753906 284.160156 C 274.65625 289.894531 262.550781 296.804688 255.847656 299.753906 L 252.308594 301.273438 L 252.308594 333.136719 C 252.308594 350.667969 252.03125 365 251.566406 365 C 251.191406 365 238.808594 354.042969 224.101562 340.722656 Z M 99.15625 228.441406 C 77.183594 208.546875 59.027344 192.363281 58.933594 192.53125 C 58.75 192.699219 59.585938 195.230469 60.796875 198.179688 C 72.15625 225.492188 96.640625 248.757812 126.25 260.304688 C 132.019531 262.582031 137.515625 264.433594 138.722656 264.605469 C 139.003906 264.6875 121.21875 248.417969 99.15625 228.441406 Z M 199.242188 195.988281 L 199.242188 142.460938 L 80.535156 142.460938 L 139.65625 195.988281 C 172.148438 225.40625 198.867188 249.515625 198.960938 249.515625 C 199.148438 249.515625 199.242188 225.40625 199.242188 195.988281 Z M 263.574219 235.351562 C 281.636719 218.324219 292.34375 199.191406 296.535156 176.261719 C 298.863281 163.785156 298.117188 144.484375 294.765625 132.597656 C 285.546875 99.300781 261.621094 72.746094 227.730469 58.078125 C 180.714844 37.847656 125.503906 46.53125 88.355469 80.164062 C 82.304688 85.730469 74.484375 94.328125 74.484375 95.507812 C 74.484375 95.84375 114.425781 96.097656 163.210938 96.097656 L 251.84375 96.097656 L 251.472656 170.78125 C 251.191406 244.203125 251.191406 245.46875 252.960938 244.625 C 253.984375 244.121094 258.734375 239.988281 263.574219 235.351562 Z M 263.574219 235.351562 "/>
</g>
</svg>
