<?xml version="1.0" encoding="UTF-8"?>
<svg xmlns="http://www.w3.org/2000/svg" xmlns:xlink="http://www.w3.org/1999/xlink" width="168pt" height="63pt" viewBox="0 0 168 63" version="1.1">
<g id="surface1">
<path style=" stroke:none;fill-rule:nonzero;fill:rgb(31.372549%,52.941176%,80.784314%);fill-opacity:1;" d="M 14.695312 62.480469 L 14.695312 36.476562 L 5.375 36.476562 L 5.375 62.480469 L 0 62.480469 L 0 0.347656 L 5.375 0.347656 L 5.375 25.742188 L 14.695312 25.742188 L 14.695312 0.347656 L 20.070312 0.347656 L 20.070312 62.480469 L 14.695312 62.480469 "/>
<path style=" stroke:none;fill-rule:nonzero;fill:rgb(31.372549%,52.941176%,80.784314%);fill-opacity:1;" d="M 33.992188 43.289062 L 30.007812 43.289062 C 28.191406 43.289062 27.1875 45.203125 27.1875 48.433594 C 27.1875 51.574219 28.113281 53.667969 30.085938 53.667969 C 31.476562 53.667969 32.367188 53.40625 33.257812 51.488281 C 33.800781 50.355469 33.992188 48.519531 33.992188 45.726562 Z M 34.109375 62.480469 L 34.109375 58.558594 C 32.753906 61.609375 31.476562 62.921875 29.160156 62.921875 C 26.878906 62.921875 25.214844 61.609375 24.015625 58.90625 C 22.933594 56.371094 22.351562 52.707031 22.351562 48.695312 C 22.351562 41.453125 24.554688 35.515625 29.234375 35.515625 L 33.992188 35.515625 L 33.992188 33.25 C 33.992188 28.273438 32.910156 26.09375 30.242188 26.09375 C 28.308594 26.09375 27.417969 27.136719 26.375 29.84375 L 23.164062 22.777344 C 25.136719 17.890625 27.070312 16.492188 30.433594 16.492188 C 36.082031 16.492188 39.019531 21.90625 39.019531 32.550781 L 39.019531 62.480469 L 34.109375 62.480469 "/>
<path style=" stroke:none;fill-rule:nonzero;fill:rgb(31.372549%,52.941176%,80.784314%);fill-opacity:1;" d="M 50.542969 26.703125 C 47.527344 26.703125 47.140625 32.289062 47.140625 39.703125 C 47.140625 47.121094 47.527344 52.792969 50.542969 52.792969 C 53.558594 52.792969 53.949219 47.121094 53.949219 39.703125 C 53.949219 32.289062 53.558594 26.703125 50.542969 26.703125 Z M 56.925781 58.90625 C 55.804688 61.4375 53.984375 63.003906 52.015625 63.003906 C 49.886719 63.003906 48.378906 61.695312 46.988281 58.203125 L 46.988281 62.480469 L 42.113281 62.480469 L 42.113281 0.347656 L 47.140625 0.347656 L 47.140625 21.03125 C 48.457031 17.714844 49.964844 16.492188 52.015625 16.492188 C 53.984375 16.492188 55.804688 18.0625 56.925781 20.59375 C 58.9375 25.132812 58.976562 32.898438 58.976562 39.703125 C 58.976562 46.515625 58.9375 54.367188 56.925781 58.90625 "/>
<path style=" stroke:none;fill-rule:nonzero;fill:rgb(31.372549%,52.941176%,80.784314%);fill-opacity:1;" d="M 61.449219 62.480469 L 61.449219 17.015625 L 66.476562 17.015625 L 66.476562 62.480469 Z M 61.371094 9.25 L 61.371094 0 L 66.515625 0 L 66.515625 9.25 L 61.371094 9.25 "/>
<path style=" stroke:none;fill-rule:nonzero;fill:rgb(31.372549%,52.941176%,80.784314%);fill-opacity:1;" d="M 76.070312 62.480469 C 71.96875 62.480469 70.230469 55.941406 70.230469 49.480469 L 70.230469 26.964844 L 68.101562 26.964844 L 68.101562 18.324219 L 70.230469 18.324219 L 70.230469 4.886719 L 75.253906 4.886719 L 75.253906 18.324219 L 78.816406 18.324219 L 78.816406 26.964844 L 75.253906 26.964844 L 75.253906 48.78125 C 75.253906 51.398438 75.796875 52.882812 76.996094 52.882812 L 78.816406 52.882812 L 78.816406 62.480469 L 76.070312 62.480469 "/>
<path style=" stroke:none;fill-rule:nonzero;fill:rgb(31.372549%,52.941176%,80.784314%);fill-opacity:1;" d="M 92.65625 62.480469 L 92.65625 58.292969 C 91.34375 61.4375 89.488281 63.003906 87.628906 63.003906 C 85.621094 63.003906 83.996094 61.527344 82.875 58.992188 C 81.25 55.328125 80.824219 51.050781 80.824219 46.078125 L 80.824219 17.015625 L 85.851562 17.015625 L 85.851562 44.503906 C 85.851562 50.699219 87.589844 52.792969 89.179688 52.792969 C 90.765625 52.792969 92.542969 50.699219 92.542969 44.503906 L 92.542969 17.015625 L 97.570312 17.015625 L 97.570312 62.480469 L 92.65625 62.480469 "/>
<path style=" stroke:none;fill-rule:nonzero;fill:rgb(31.372549%,52.941176%,80.784314%);fill-opacity:1;" d="M 111.105469 43.289062 L 107.121094 43.289062 C 105.304688 43.289062 104.296875 45.203125 104.296875 48.433594 C 104.296875 51.574219 105.226562 53.667969 107.199219 53.667969 C 108.589844 53.667969 109.480469 53.40625 110.371094 51.488281 C 110.910156 50.355469 111.105469 48.519531 111.105469 45.726562 Z M 111.21875 62.480469 L 111.21875 58.558594 C 109.867188 61.609375 108.589844 62.921875 106.269531 62.921875 C 103.988281 62.921875 102.324219 61.609375 101.125 58.90625 C 100.042969 56.371094 99.464844 52.707031 99.464844 48.695312 C 99.464844 41.453125 101.667969 35.515625 106.347656 35.515625 L 111.105469 35.515625 L 111.105469 33.25 C 111.105469 28.273438 110.023438 26.09375 107.351562 26.09375 C 105.417969 26.09375 104.53125 27.136719 103.484375 29.84375 L 100.277344 22.777344 C 102.25 17.890625 104.183594 16.492188 107.546875 16.492188 C 113.195312 16.492188 116.132812 21.90625 116.132812 32.550781 L 116.132812 62.480469 L 111.21875 62.480469 "/>
<path style=" stroke:none;fill-rule:nonzero;fill:rgb(31.372549%,52.941176%,80.784314%);fill-opacity:1;" d="M 124.910156 62.480469 C 120.773438 62.480469 119.03125 55.941406 119.03125 49.480469 L 119.03125 0.347656 L 124.058594 0.347656 L 124.058594 48.78125 C 124.058594 51.488281 124.5625 52.882812 125.839844 52.882812 L 127.769531 52.882812 L 127.769531 62.480469 L 124.910156 62.480469 "/>
<path style=" stroke:none;fill-rule:nonzero;fill:rgb(92.941176%,5.882353%,33.333333%);fill-opacity:1;" d="M 130.167969 62.480469 L 130.167969 52.796875 L 134.492188 52.796875 L 134.492188 62.480469 L 130.167969 62.480469 "/>
<path style=" stroke:none;fill-rule:nonzero;fill:rgb(92.941176%,5.882353%,33.333333%);fill-opacity:1;" d="M 148.710938 18.675781 L 145.230469 41.277344 L 152.074219 41.277344 Z M 155.128906 62.480469 L 153.503906 51.488281 L 143.722656 51.488281 L 142.058594 62.480469 L 136.449219 62.480469 L 146.464844 0.347656 L 150.683594 0.347656 L 160.738281 62.480469 L 155.128906 62.480469 "/>
<path style=" stroke:none;fill-rule:nonzero;fill:rgb(92.941176%,5.882353%,33.333333%);fill-opacity:1;" d="M 162.59375 62.480469 L 162.59375 0.347656 L 167.96875 0.347656 L 167.96875 62.480469 L 162.59375 62.480469 "/>
</g>
</svg>
