<?xml version="1.0" encoding="UTF-8"?>
<svg xmlns="http://www.w3.org/2000/svg" xmlns:xlink="http://www.w3.org/1999/xlink" width="168pt" height="36pt" viewBox="0 0 168 36" version="1.1">
<g id="surface1">
<path style=" stroke:none;fill-rule:nonzero;fill:rgb(31.372549%,52.941176%,80.784314%);fill-opacity:1;" d="M 14.695312 35.703125 L 14.695312 20.84375 L 5.375 20.84375 L 5.375 35.703125 L 0 35.703125 L 0 0.199219 L 5.375 0.199219 L 5.375 14.710938 L 14.695312 14.710938 L 14.695312 0.199219 L 20.070312 0.199219 L 20.070312 35.703125 L 14.695312 35.703125 "/>
<path style=" stroke:none;fill-rule:nonzero;fill:rgb(31.372549%,52.941176%,80.784314%);fill-opacity:1;" d="M 33.992188 24.734375 L 30.007812 24.734375 C 28.191406 24.734375 27.1875 25.832031 27.1875 27.675781 C 27.1875 29.472656 28.113281 30.667969 30.085938 30.667969 C 31.476562 30.667969 32.367188 30.519531 33.257812 29.421875 C 33.800781 28.773438 33.992188 27.726562 33.992188 26.128906 Z M 34.109375 35.703125 L 34.109375 33.460938 C 32.753906 35.207031 31.476562 35.953125 29.160156 35.953125 C 26.878906 35.953125 25.214844 35.207031 24.015625 33.660156 C 22.933594 32.210938 22.351562 30.117188 22.351562 27.824219 C 22.351562 23.6875 24.554688 20.296875 29.234375 20.296875 L 33.992188 20.296875 L 33.992188 19 C 33.992188 16.15625 32.910156 14.910156 30.242188 14.910156 C 28.308594 14.910156 27.417969 15.507812 26.375 17.054688 L 23.164062 13.015625 C 25.136719 10.222656 27.070312 9.425781 30.433594 9.425781 C 36.082031 9.425781 39.019531 12.515625 39.019531 18.601562 L 39.019531 35.703125 L 34.109375 35.703125 "/>
<path style=" stroke:none;fill-rule:nonzero;fill:rgb(31.372549%,52.941176%,80.784314%);fill-opacity:1;" d="M 50.542969 15.257812 C 47.527344 15.257812 47.140625 18.449219 47.140625 22.6875 C 47.140625 26.925781 47.527344 30.167969 50.542969 30.167969 C 53.558594 30.167969 53.949219 26.925781 53.949219 22.6875 C 53.949219 18.449219 53.558594 15.257812 50.542969 15.257812 Z M 56.925781 33.660156 C 55.804688 35.105469 53.984375 36.003906 52.015625 36.003906 C 49.886719 36.003906 48.378906 35.253906 46.988281 33.257812 L 46.988281 35.703125 L 42.113281 35.703125 L 42.113281 0.199219 L 47.140625 0.199219 L 47.140625 12.019531 C 48.457031 10.125 49.964844 9.425781 52.015625 9.425781 C 53.984375 9.425781 55.804688 10.320312 56.925781 11.769531 C 58.9375 14.363281 58.976562 18.796875 58.976562 22.6875 C 58.976562 26.578125 58.9375 31.066406 56.925781 33.660156 "/>
<path style=" stroke:none;fill-rule:nonzero;fill:rgb(31.372549%,52.941176%,80.784314%);fill-opacity:1;" d="M 61.449219 35.703125 L 61.449219 9.722656 L 66.476562 9.722656 L 66.476562 35.703125 Z M 61.371094 5.285156 L 61.371094 0 L 66.515625 0 L 66.515625 5.285156 L 61.371094 5.285156 "/>
<path style=" stroke:none;fill-rule:nonzero;fill:rgb(31.372549%,52.941176%,80.784314%);fill-opacity:1;" d="M 76.070312 35.703125 C 71.96875 35.703125 70.230469 31.964844 70.230469 28.273438 L 70.230469 15.410156 L 68.101562 15.410156 L 68.101562 10.472656 L 70.230469 10.472656 L 70.230469 2.792969 L 75.253906 2.792969 L 75.253906 10.472656 L 78.816406 10.472656 L 78.816406 15.410156 L 75.253906 15.410156 L 75.253906 27.875 C 75.253906 29.371094 75.796875 30.21875 76.996094 30.21875 L 78.816406 30.21875 L 78.816406 35.703125 L 76.070312 35.703125 "/>
<path style=" stroke:none;fill-rule:nonzero;fill:rgb(31.372549%,52.941176%,80.784314%);fill-opacity:1;" d="M 92.65625 35.703125 L 92.65625 33.308594 C 91.34375 35.105469 89.488281 36.003906 87.628906 36.003906 C 85.621094 36.003906 83.996094 35.15625 82.875 33.710938 C 81.25 31.617188 80.824219 29.171875 80.824219 26.328125 L 80.824219 9.722656 L 85.851562 9.722656 L 85.851562 25.429688 C 85.851562 28.972656 87.589844 30.167969 89.179688 30.167969 C 90.765625 30.167969 92.542969 28.972656 92.542969 25.429688 L 92.542969 9.722656 L 97.570312 9.722656 L 97.570312 35.703125 L 92.65625 35.703125 "/>
<path style=" stroke:none;fill-rule:nonzero;fill:rgb(31.372549%,52.941176%,80.784314%);fill-opacity:1;" d="M 111.105469 24.734375 L 107.121094 24.734375 C 105.304688 24.734375 104.296875 25.832031 104.296875 27.675781 C 104.296875 29.472656 105.226562 30.667969 107.199219 30.667969 C 108.589844 30.667969 109.480469 30.519531 110.371094 29.421875 C 110.910156 28.773438 111.105469 27.726562 111.105469 26.128906 Z M 111.21875 35.703125 L 111.21875 33.460938 C 109.867188 35.207031 108.589844 35.953125 106.269531 35.953125 C 103.988281 35.953125 102.324219 35.207031 101.125 33.660156 C 100.042969 32.210938 99.464844 30.117188 99.464844 27.824219 C 99.464844 23.6875 101.667969 20.296875 106.347656 20.296875 L 111.105469 20.296875 L 111.105469 19 C 111.105469 16.15625 110.023438 14.910156 107.351562 14.910156 C 105.417969 14.910156 104.53125 15.507812 103.484375 17.054688 L 100.277344 13.015625 C 102.25 10.222656 104.183594 9.425781 107.546875 9.425781 C 113.195312 9.425781 116.132812 12.515625 116.132812 18.601562 L 116.132812 35.703125 L 111.21875 35.703125 "/>
<path style=" stroke:none;fill-rule:nonzero;fill:rgb(31.372549%,52.941176%,80.784314%);fill-opacity:1;" d="M 124.910156 35.703125 C 120.773438 35.703125 119.03125 31.964844 119.03125 28.273438 L 119.03125 0.199219 L 124.058594 0.199219 L 124.058594 27.875 C 124.058594 29.421875 124.5625 30.21875 125.839844 30.21875 L 127.769531 30.21875 L 127.769531 35.703125 L 124.910156 35.703125 "/>
<path style=" stroke:none;fill-rule:nonzero;fill:rgb(92.941176%,5.882353%,33.333333%);fill-opacity:1;" d="M 130.167969 35.703125 L 130.167969 30.167969 L 134.492188 30.167969 L 134.492188 35.703125 L 130.167969 35.703125 "/>
<path style=" stroke:none;fill-rule:nonzero;fill:rgb(92.941176%,5.882353%,33.333333%);fill-opacity:1;" d="M 148.710938 10.671875 L 145.230469 23.585938 L 152.074219 23.585938 Z M 155.128906 35.703125 L 153.503906 29.421875 L 143.722656 29.421875 L 142.058594 35.703125 L 136.449219 35.703125 L 146.464844 0.199219 L 150.683594 0.199219 L 160.738281 35.703125 L 155.128906 35.703125 "/>
<path style=" stroke:none;fill-rule:nonzero;fill:rgb(92.941176%,5.882353%,33.333333%);fill-opacity:1;" d="M 162.59375 35.703125 L 162.59375 0.199219 L 167.96875 0.199219 L 167.96875 35.703125 L 162.59375 35.703125 "/>
</g>
</svg>
