<!DOCTYPE svg PUBLIC "-//W3C//DTD SVG 20010904//EN" "http://www.w3.org/TR/2001/REC-SVG-20010904/DTD/svg10.dtd">
<svg version="1.0" xmlns="http://www.w3.org/2000/svg" width="377px" height="433px" viewBox="0 0 3770 4330" preserveAspectRatio="xMidYMid meet">
<g id="layer101" fill="#e5004e" stroke="none">
 <path d="M2407 4042 l-288 -288 -173 4 c-334 8 -592 -44 -874 -178 -657 -313 -1072 -971 -1072 -1700 0 -959 717 -1762 1670 -1871 128 -14 423 -7 535 14 404 76 730 245 1009 523 264 264 447 604 516 960 138 715 -126 1425 -693 1865 -87 68 -217 150 -289 185 l-38 18 0 378 c0 208 -3 378 -8 378 -4 0 -137 -130 -295 -288z m-1342 -1332 c-236 -236 -431 -428 -432 -426 -2 2 7 32 20 67 122 324 385 600 703 737 62 27 121 49 134 51 3 1 -188 -192 -425 -429z m1075 -385 l0 -635 -637 0 -638 0 635 635 c349 349 636 635 637 635 2 0 3 -286 3 -635z m691 467 c194 -202 309 -429 354 -701 25 -148 17 -377 -19 -518 -99 -395 -356 -710 -720 -884 -505 -240 -1098 -137 -1497 262 -65 66 -149 168 -149 182 0 4 429 7 953 7 l952 0 -4 886 c-3 871 -3 886 16 876 11 -6 62 -55 114 -110z"/>
 </g>

</svg>